<svg xmlns="http://www.w3.org/2000/svg" viewBox="0 0 1024 1024"><defs><style>.cls-1{isolation:isolate;}.cls-2{opacity:0.76;}.cls-3{fill:#4c88ff;}.cls-4,.cls-8{fill:#3d5882;}.cls-4{mix-blend-mode:multiply;}.cls-5{fill:#263954;}.cls-5,.cls-6,.cls-7,.cls-8{mix-blend-mode:overlay;}.cls-6{fill:#acc8ef;}.cls-7{fill:#a1a4a8;}.cls-9{fill:#e2d154;}.cls-10,.cls-11,.cls-9{stroke:#4c88ff;stroke-miterlimit:10;stroke-width:5px;}.cls-10{fill:#3e6363;}.cls-11{fill:#304c4b;}</style></defs><g class="cls-1"><g id="Layer_6" data-name="Layer 6" class="cls-2"><rect class="cls-3" x="-81" y="-72" width="1203" height="1154"/><circle class="cls-4" cx="69" cy="154" r="257"/><circle class="cls-5" cx="581.5" cy="170.5" r="194.5"/><circle class="cls-6" cx="974.5" cy="63.5" r="107.5"/><circle class="cls-7" cx="205" cy="776" r="334"/><circle class="cls-4" cx="957.5" cy="623.5" r="212.5"/><circle class="cls-8" cx="697.5" cy="919.5" r="89.5"/></g><g id="Layer_5" data-name="Layer 5"><g id="Estatua"><path class="cls-9" d="M372.38,592.44c-1.45-21.3-9.43-42.06-8.19-63.37.75-12.66,4.74-25,5.5-37.62,1.32-21.75-4.82-43-9-64.35-1.83-9.36-4.59-20,1.78-27.11,20.39-8.35,16.55-23.82,15.73-43.28-.24-24.33,16.6-70.18-7.05-84.75-26-7.3-34.5-13.4-42.62-19.45-8.36-6.22-4.14-19.12-2.94-31.46,3.51-27.13.15-56.54-34.37-49.1-32.28,7-15.09,45.4-15.09,45.4,8.94,22.75,17.07,41.23-11.05,51.66-23.29,12.62-39.64,23.44-33.66,52.26,3.3,20.81,13,72.52,31.31,83.41,9.68,1.91,14.44,6.38,12.81,16.83-6.59,52.4,14.65,101.48,22.64,152,.91,15.08-1.7,30.33.67,45.25,2.71,17.08,13.68,32,16.51,49.08,6.42,38.74-6.35,44.67-5,42.91-5,.78-13.68,1.52-22.86,2.81L387,704.24C350,693.75,375.79,625.84,372.38,592.44Z"/></g><g id="Bottom_M" data-name="Bottom M"><polygon class="cls-10" points="457.25 846.56 257.98 865.15 240 866.83 244.89 919.27 477.88 897.53 472.99 845.09 457.25 846.56"/></g><g id="Bottom_B" data-name="Bottom B"><polygon class="cls-11" points="444.88 713.96 437.39 714.65 256.09 731.57 254.97 731.68 245.6 732.55 257.98 865.15 457.25 846.56 444.88 713.96"/></g><g id="Bottom_S" data-name="Bottom S"><polygon class="cls-10" points="437.39 714.65 435.99 699.67 387 704.24 287.46 713.53 254.69 716.59 255.34 723.51 256.09 731.57 437.39 714.65"/></g></g></g></svg>