<svg xmlns="http://www.w3.org/2000/svg" viewBox="0 0 1024 845"><defs><style>.cls-1{fill:#212329;}.cls-2{fill:#2d323d;}.cls-3{fill:#4c88ff;}.cls-4{fill:#1a1a1a;}</style></defs><g id="Fantasy"><g id="Meio"><rect class="cls-1" x="264.07" y="149.47" width="500.72" height="685.43"/><rect class="cls-2" x="201.76" y="35.98" width="624.23" height="113.5"/><path class="cls-3" d="M478.71,235.21h89a5.23,5.23,0,0,1,5.23,5.23v77.07a44.69,44.69,0,0,1-44.69,44.69H518.17a44.69,44.69,0,0,1-44.69-44.69V240.44A5.23,5.23,0,0,1,478.71,235.21Z" transform="translate(1046.41 597.41) rotate(-180)"/><path class="cls-3" d="M398.71,655.76V834.91H510V539.06A116.83,116.83,0,0,0,398.71,655.76Z"/><path class="cls-3" d="M521.11,539.06V834.91H632.38V655.76A116.83,116.83,0,0,0,521.11,539.06Z"/><path class="cls-2" d="M515.55,538.92h0c-1.87,0-3.72.05-5.57.14V834.91h11.13V539.06C519.27,539,517.41,538.92,515.55,538.92Z"/><rect class="cls-3" x="398.71" y="432.66" width="233.67" height="11.13" rx="5"/><rect class="cls-2" x="536.5" y="663.5" width="10" height="93" rx="4.5"/></g><g id="Castelo_Coluna_Direita" data-name="Castelo Coluna Direita"><path class="cls-2" d="M730.26,202.12V831a4.47,4.47,0,0,0,4.48,4.47h277.72a4.48,4.48,0,0,0,4.48-4.47V722a4.49,4.49,0,0,0-4.48-4.48h-39.8a4.48,4.48,0,0,1-4.48-4.47V202.12a.43.43,0,0,0-.43-.43H730.69A.43.43,0,0,0,730.26,202.12Z"/><path class="cls-4" d="M710.52,201.94H989.57a3.47,3.47,0,0,0,2.82-5.48L852.87,1.12a3.47,3.47,0,0,0-5.64,0L707.7,196.46A3.47,3.47,0,0,0,710.52,201.94Z"/><rect class="cls-1" x="878.47" y="471.79" width="54.6" height="85.81" transform="translate(1811.55 1029.39) rotate(-180)"/><rect class="cls-1" x="767.31" y="471.79" width="54.6" height="85.81" transform="translate(1589.23 1029.39) rotate(-180)"/><path class="cls-3" d="M766.34,427.36V530.79a27.79,27.79,0,0,0,27.79,27.79h0a27.79,27.79,0,0,0,27.79-27.79V427.36a13.1,13.1,0,0,1,13.1-13.1H864.4a13.1,13.1,0,0,1,13.1,13.1V530.79a27.79,27.79,0,0,0,27.79,27.79h0a27.79,27.79,0,0,0,27.79-27.79V427.36a13.1,13.1,0,0,1,13.1-13.1h29.38a13.1,13.1,0,0,1,13.1,13.1V610.81a13.1,13.1,0,0,1-13.1,13.1H723.86a13.1,13.1,0,0,1-13.1-13.1V427.36a13.1,13.1,0,0,1,13.1-13.1h29.38A13.1,13.1,0,0,1,766.34,427.36Z"/><path class="cls-3" d="M804.72,235.59h89a5.23,5.23,0,0,1,5.23,5.23v77.07a44.69,44.69,0,0,1-44.69,44.69H844.18a44.69,44.69,0,0,1-44.69-44.69V240.83a5.23,5.23,0,0,1,5.23-5.23Z" transform="translate(1698.44 598.18) rotate(-180)"/></g><g id="Castelo_Coluna_Esquerda" data-name="Castelo Coluna Esquerda"><path class="cls-2" d="M293.71,202v628.9a4.47,4.47,0,0,1-4.47,4.47H11.51A4.47,4.47,0,0,1,7,830.86v-109a4.47,4.47,0,0,1,4.47-4.47H51.32a4.48,4.48,0,0,0,4.47-4.48V202a.43.43,0,0,1,.43-.43H293.28A.43.43,0,0,1,293.71,202Z"/><path class="cls-4" d="M313.45,201.77H34.4a3.47,3.47,0,0,1-2.82-5.48L171.1,1a3.48,3.48,0,0,1,5.65,0L316.27,196.29A3.47,3.47,0,0,1,313.45,201.77Z"/><rect class="cls-1" x="90.89" y="471.62" width="54.6" height="85.81"/><rect class="cls-1" x="202.05" y="471.62" width="54.6" height="85.81"/><path class="cls-3" d="M257.63,427.19V530.62a27.79,27.79,0,0,1-27.79,27.79h0a27.79,27.79,0,0,1-27.79-27.79V427.19A13.1,13.1,0,0,0,189,414.09H159.57a13.11,13.11,0,0,0-13.1,13.1V530.62a27.79,27.79,0,0,1-27.79,27.79h0a27.8,27.8,0,0,1-27.79-27.79V427.19a13.1,13.1,0,0,0-13.09-13.1H48.41a13.11,13.11,0,0,0-13.1,13.1V610.64a13.11,13.11,0,0,0,13.1,13.1H300.12a13.1,13.1,0,0,0,13.09-13.1V427.19a13.1,13.1,0,0,0-13.09-13.1H270.73A13.11,13.11,0,0,0,257.63,427.19Z"/><path class="cls-3" d="M169.71,235.42h10.08a44.69,44.69,0,0,1,44.69,44.69v77.07a5.23,5.23,0,0,1-5.23,5.23h-89a5.23,5.23,0,0,1-5.23-5.23V280.12a44.69,44.69,0,0,1,44.69-44.69Z"/></g></g></svg>