<svg xmlns="http://www.w3.org/2000/svg" viewBox="0 0 1024 1024"><defs><style>.cls-1{fill:#2d323d;}.cls-2{fill:#212329;}</style></defs><g id="War"><rect class="cls-1" x="507.09" y="9.21" width="7.42" height="39.59"/><rect class="cls-1" x="423.58" y="5.5" width="173.2" height="7.42" rx="3"/><path class="cls-2" d="M510.19,954.4,266.46,916.67c-9.19-1.42-9.19-14.66,0-16.08l243.73-37.74Z"/><path class="cls-2" d="M510.19,954l243.73-37.73c9.19-1.42,9.19-14.66,0-16.09L510.19,862.49Z"/><rect class="cls-1" x="507.71" y="891.31" width="7.42" height="126.19" rx="3"/><path class="cls-1" d="M954,489.23H70.1c-5.81,0-10.66-3.81-11.21-8.8L41.23,319.24c-.63-5.7,4.57-10.63,11.2-10.63H971.65c6.63,0,11.83,4.93,11.2,10.63L965.19,480.43C964.64,485.42,959.79,489.23,954,489.23Z"/><path class="cls-2" d="M509.57,951.93h0a87.93,87.93,0,0,1-87.87-84.69l-24-651.55A195.34,195.34,0,0,1,476.2,51.84l14.33-10.67a32.73,32.73,0,0,1,39.24.1l14,10.53a195.31,195.31,0,0,1,77.72,163.25l-24,652.19A87.94,87.94,0,0,1,509.57,951.93Z"/></g></svg>