<svg xmlns="http://www.w3.org/2000/svg" viewBox="0 0 1024 875"><defs><style>.cls-1{fill:#21408a;}.cls-2{fill:#58678a;}.cls-3{fill:#fcfcfc;}.cls-4{fill:#212329;}.cls-5{fill:#fff;}</style></defs><g id="Animation"><g id="Cabeca"><path class="cls-1" d="M269.28,316.79c-83.24,53.37-190,35.34-238.54-40.28S10.41,96.3,93.66,42.92s190-35.34,238.52,40.28S352.52,263.41,269.28,316.79Z"/><path class="cls-1" d="M994.14,270.28c-48.5,75.62-155.3,93.65-238.54,40.27-1.13-.72-2.23-1.45-3.34-2.19a336.42,336.42,0,0,0-39.46-34.91C664.22,216.9,653.8,137.61,692.7,77,741.2,1.34,848-16.69,931.22,36.69S1042.63,194.66,994.14,270.28Z"/><path class="cls-2" d="M758.86,306.56a334.24,334.24,0,0,1,94.15,233c0,185.21-150.15,335.34-335.35,335.34S182.31,724.76,182.31,539.55,332.45,204.2,517.66,204.2A333.81,333.81,0,0,1,719.4,271.66,194.81,194.81,0,0,0,758.86,306.56Z"/></g><ellipse class="cls-3" cx="424.1" cy="481.02" rx="25.65" ry="64.44"/><ellipse id="O" class="cls-3" cx="598.66" cy="481.65" rx="25.65" ry="64.44"/><ellipse class="cls-4" cx="511.07" cy="629.92" rx="59.44" ry="35.04"/><ellipse class="cls-5" cx="484.79" cy="626.17" rx="9.38" ry="10.01"/></g></svg>