<svg xmlns="http://www.w3.org/2000/svg" viewBox="0 0 758 1024"><defs><style>.cls-1{fill:#212329;}.cls-2{fill:#58678a;}.cls-3{fill:#21408a;}.cls-4{fill:#bc843f;}.cls-5{fill:#ffae4c;}</style></defs><g id="Crime"><g id="Chapeu"><rect class="cls-1" x="175.21" y="211.93" width="439.93" height="59.34" transform="translate(48.01 -65.01) rotate(10.01)"/><polyline class="cls-1" points="264.03 184.17 289.85 37.87 356.87 2.5 401.21 51.47 485.99 6.74 568.04 62.77 538.07 232.54"/></g><g id="Roupa"><path class="cls-2" d="M730.21,571.67H563.15l120,181.09-74.69,84.91L729.19,1030H541.12a12.33,12.33,0,0,0,12.1,10.23h177A12.32,12.32,0,0,0,742.49,1028V584A12.31,12.31,0,0,0,730.21,571.67Z"/><polygon class="cls-3" points="608.46 837.67 683.15 752.76 563.15 571.67 514.34 498.01 442.72 569.62 532.75 1030.02 541.12 1030.02 729.19 1030.02 608.46 837.67"/><path class="cls-2" d="M24.28,569.62H191.34l-120,181.09L146,835.63,25.3,1028H213.36a12.31,12.31,0,0,1-12.09,10.23h-177A12.31,12.31,0,0,1,12,1025.92v-444A12.31,12.31,0,0,1,24.28,569.62Z"/><polygon class="cls-3" points="146.03 835.63 71.34 750.71 191.34 569.62 240.15 495.96 311.77 567.58 221.73 1027.97 213.36 1027.97 25.3 1027.97 146.03 835.63"/></g><g id="Gravata"><path class="cls-2" d="M387.3,639.19H367.2a8.31,8.31,0,0,1-7.71-5.19l-21-52c-2.05-5.06,1.24-10.92,6.69-11.36.23,0,.46,0,.7,0h61.69a8.35,8.35,0,0,1,2.7.44,8.21,8.21,0,0,1,4.82,10.76l-20,52A8.3,8.3,0,0,1,387.3,639.19Z"/><path class="cls-2" d="M393.77,645.33H361.25c-5.48,0-10.42,12.19-12.47,30.81L314.81,984c-3.32,30,2,64.72,10.83,67.36a4,4,0,0,0,1.13.17h99.8c1.53,0,3-.92,4.38-2.62,7.07-8.72,10.47-38.3,7.79-63.78L406.33,676.89C404.33,657.88,399.34,645.33,393.77,645.33Z"/></g><g id="Cigarro"><path class="cls-4" d="M201.86,388a.69.69,0,0,0,0,.51,1,1,0,0,0,.38.42,2.48,2.48,0,0,0,1,.3,3.39,3.39,0,0,0,1.09-.08l.93-.3a32.06,32.06,0,0,0,14.93-10.07,28.78,28.78,0,0,0,4.7-7.83,20.25,20.25,0,0,0,1.28-5.09,16.57,16.57,0,0,0-.07-4.42,16,16,0,0,0-2-5.58,19.72,19.72,0,0,0-3.42-4.36,24.9,24.9,0,0,0-5.1-3.75,45.05,45.05,0,0,0-11.83-4.09c-3.71-.82-6.81-1.51-8.92-2.21a27.33,27.33,0,0,1-3.29-1.25l-.7-.34a19.38,19.38,0,0,1-1.79-1,13.29,13.29,0,0,1-4.48-4.54,17.9,17.9,0,0,1-2.33-8.1,28.67,28.67,0,0,1,.95-8.46,63,63,0,0,1,3.58-9.9c1.13-2.55,2.11-4.34,2.77-5.58a130.16,130.16,0,0,1,7.59-12.06,55.56,55.56,0,0,1,8.88-10.1,35.86,35.86,0,0,0-7,2.4,33.14,33.14,0,0,0-6,3.7,40.34,40.34,0,0,0-10.31,12.25c-.75,1.37-1.85,3.37-3.11,6.18a69.66,69.66,0,0,0-4,11.18,36,36,0,0,0-1.18,10.84,25.63,25.63,0,0,0,3.44,11.67,20.92,20.92,0,0,0,3.5,4.39,22.11,22.11,0,0,0,3.52,2.72,26.45,26.45,0,0,0,2.51,1.41c.6.3.93.44.93.44a35.32,35.32,0,0,0,4.13,1.6c2.54.85,6,1.62,9.55,2.41a38,38,0,0,1,9.78,3.32,16.9,16.9,0,0,1,3.46,2.53,12.06,12.06,0,0,1,2.07,2.61,8.19,8.19,0,0,1,1.08,5.22,13.88,13.88,0,0,1-.8,3.21,39,39,0,0,1-3.26,6.34c-1.2,1.93-2.39,3.69-3.64,5.38s-2.55,3.32-4,5c-.73.82-1.5,1.64-2.34,2.47a3.77,3.77,0,0,1-1.22,1,1.88,1.88,0,0,1-.77.17A.54.54,0,0,1,201.86,388Z"/><path class="cls-5" d="M198,403.88H351.67a0,0,0,0,1,0,0v21.67a3.91,3.91,0,0,1-3.91,3.91H198a3.91,3.91,0,0,1-3.91-3.91V407.8a3.91,3.91,0,0,1,3.91-3.91Z"/></g></g></svg>