<svg xmlns="http://www.w3.org/2000/svg" viewBox="0 0 1024 724"><defs><style>.cls-1{fill:#fff;}.cls-2{fill:none;}.cls-3{fill:#1a1a1a;}.cls-4{fill:#4c88ff;}.cls-5{fill:#ffae4c;}</style></defs><g id="Adventure"><polygon class="cls-1" points="20.5 22 20.5 604 340.58 705.53 682.5 706 1002.5 604 1002.5 22 682.5 125 351.34 125.11 20.5 22"/><polygon class="cls-2" points="1002.97 603.58 1002.97 21.74 682.42 123.7 682.42 705.53 1002.97 603.58"/><polygon class="cls-2" points="20.03 603.58 340.58 705.53 340.58 123.7 20.03 21.74 20.03 603.58"/><rect class="cls-2" x="351.34" y="125.11" width="320.55" height="582.36"/><polygon class="cls-3" points="351.34 707.47 351.34 125.11 671.89 125.11 671.89 116 676.34 114.58 346.66 114.58 351.11 116 351.11 718 671.89 718 671.89 707.47 351.34 707.47"/><polygon class="cls-3" points="1013.5 7.34 676.34 114.58 682.42 114.58 682.42 123.7 1002.97 21.74 1002.97 603.58 682.42 705.53 682.42 716.59 1013.5 611.28 1013.5 7.34"/><polygon class="cls-3" points="682.42 123.7 682.42 114.58 676.34 114.58 671.89 116 671.89 125.11 671.89 707.47 671.89 718 677.97 718 682.42 716.59 682.42 705.53 682.42 123.7"/><path class="cls-3" d="M346.66,114.58,9.5,7.34V611.28L340.81,716.66V114.58Zm-6.08,590.95L20,603.58V21.74l320.55,102Z"/><polygon class="cls-3" points="346.66 114.58 340.81 114.58 340.81 716.66 345.03 718 351.11 718 351.11 116 346.66 114.58"/><rect class="cls-4" x="91.87" y="297.82" width="107.41" height="18.96" rx="9" transform="translate(289.26 -0.89) rotate(50.35)"/><rect class="cls-4" x="91.87" y="297.82" width="107.41" height="18.96" rx="9" transform="translate(475.07 391.32) rotate(129.65)"/><rect class="cls-4" x="217.19" y="300.98" width="66.34" height="24.22" rx="11.5" transform="translate(-47.91 45.25) rotate(-9.43)"/><rect class="cls-4" x="317.23" y="287.29" width="66.34" height="24.22" rx="11.5"/><rect class="cls-4" x="399.37" y="346.26" width="66.34" height="24.22" rx="11.5" transform="translate(359.37 -198.56) rotate(42.87)"/><rect class="cls-4" x="454.72" y="423.23" width="66.34" height="24.22" rx="11.5" transform="translate(654.35 -197) rotate(63.01)"/><rect class="cls-4" x="508.43" y="505.37" width="66.34" height="24.22" rx="11.5" transform="translate(238.26 -167.43) rotate(22.42)"/><rect class="cls-4" x="617.95" y="498" width="66.34" height="24.22" rx="11.5" transform="translate(-167.82 393.9) rotate(-30)"/><rect class="cls-4" x="701.14" y="431.65" width="66.34" height="24.22" rx="11.5" transform="translate(-98.71 649.22) rotate(-45)"/><rect class="cls-4" x="743.27" y="363.2" width="66.34" height="24.22" rx="11.5" transform="translate(185.26 1003.18) rotate(-72.52)"/><path class="cls-5" d="M801.74,181.2a52.25,52.25,0,0,0-10.61,0c-33.63,3.44-52.74,40.38-37.07,70.34l42.38,81,42.37-81C854.48,221.58,835.37,184.64,801.74,181.2Zm-5.3,80.12a34.72,34.72,0,1,1,34.71-34.72A34.72,34.72,0,0,1,796.44,261.32Z"/><circle class="cls-1" cx="796.44" cy="226.6" r="34.71"/></g></svg>