<svg xmlns="http://www.w3.org/2000/svg" viewBox="0 0 1024 748"><defs><style>.cls-1{fill:#4c88ff;}.cls-2{fill:#58678a;}.cls-3{fill:#f3fdff;}.cls-4{fill:#fff;}.cls-5{fill:#2d323d;}.cls-6{fill:#f9f9f9;}</style></defs><g id="Drama"><path class="cls-1" d="M522.72,498.72c-47.06,182-270,263.68-400.23,83.1C65.18,506.38,20,232.05,9.12,161.4A14.21,14.21,0,0,1,23.4,145c169.88,24.3,289.56-8.31,399.05-125.1a14.22,14.22,0,0,1,22.31,7.71C466.37,109.17,543.1,410.1,522.72,498.72Z"/><path class="cls-1" d="M317.38,229.72l136.53,1.16s-.5,59.74-68.77,59.16S317.38,229.72,317.38,229.72Z"/><path class="cls-1" d="M301,451c95.47-32,166,38.85,166,38.85C366.92,478.4,264.15,513.38,192,582,192,582,205.54,483,301,451Z"/><path class="cls-1" d="M79.9,306.33l125-54.85s24,54.7-38.51,82.13S79.9,306.33,79.9,306.33Z"/><path class="cls-1" d="M79.9,306.33l125-54.85s24,54.7-38.51,82.13S79.9,306.33,79.9,306.33Z"/><path class="cls-1" d="M922.56,617.17C799,800.42,519.92,803.53,446.39,552.31,412.45,446.23,470,124.45,485.62,41.9a16.7,16.7,0,0,1,22.24-12.54C686.61,122.91,832.05,133.7,999.2,47.21a16.71,16.71,0,0,1,21.7,17.28C1012.88,163.32,979.91,526.93,922.56,617.17Z"/><path class="cls-1" d="M507.92,220.4l160.32-8.06s3.53,70.14-76.63,74.17S507.92,220.4,507.92,220.4Z"/><path class="cls-1" d="M799.47,231.6l151.77,52.28s-22.88,66.4-98.76,40.26S799.47,231.6,799.47,231.6Z"/><path class="cls-1" d="M696.12,469.32c118.34,3.19,167.66,109.9,167.66,109.9-106-53-233.56-55.85-341-9.19C522.79,570,577.78,466.13,696.12,469.32Z"/><path class="cls-2" d="M522.72,498.72c-47.06,182-270,263.68-400.23,83.1C65.18,506.38,20,232.05,9.12,161.4A14.21,14.21,0,0,1,23.4,145c169.88,24.3,289.56-8.31,399.05-125.1a14.22,14.22,0,0,1,22.31,7.71C466.37,109.17,543.1,410.1,522.72,498.72Z"/><path class="cls-3" d="M317.38,229.72l136.53,1.16s-.5,59.74-68.77,59.16S317.38,229.72,317.38,229.72Z"/><path class="cls-4" d="M301,451c95.47-32,166,38.85,166,38.85C366.92,478.4,264.15,513.38,192,582,192,582,205.54,483,301,451Z"/><path class="cls-4" d="M79.9,306.33l125-54.85s24,54.7-38.51,82.13S79.9,306.33,79.9,306.33Z"/><path class="cls-5" d="M922.56,617.17C799,800.42,519.92,803.53,446.39,552.31,412.45,446.23,470,124.45,485.62,41.9a16.7,16.7,0,0,1,22.24-12.54C686.61,122.91,832.05,133.7,999.2,47.21a16.71,16.71,0,0,1,21.7,17.28C1012.88,163.32,979.91,526.93,922.56,617.17Z"/><path class="cls-6" d="M507.92,220.4l160.32-8.06s3.53,70.14-76.63,74.17S507.92,220.4,507.92,220.4Z"/><path class="cls-3" d="M799.47,231.6l151.77,52.28s-22.88,66.4-98.76,40.26S799.47,231.6,799.47,231.6Z"/><path class="cls-4" d="M696.12,469.32c118.34,3.19,167.66,109.9,167.66,109.9-106-53-233.56-55.85-341-9.19C522.79,570,577.78,466.13,696.12,469.32Z"/></g></svg>