<svg id="Romance" xmlns="http://www.w3.org/2000/svg" viewBox="0 0 1024 927"><defs><style>.cls-1{fill:#212329;}.cls-2{fill:#58678a;}.cls-3{fill:#fff;stroke:#000;stroke-miterlimit:10;}.cls-4{fill:#2d323d;}</style></defs><g id="Heart_Front" data-name="Heart Front"><path class="cls-1" d="M769.28,289.06C659.37,434.5,484.54,662.82,402.15,771.86c-81.62-108.3-250.84-329-361-474.71-76-100.49-30-247.23,90.47-283.93C234.9-18.24,360.5,20.06,402.15,144.54,449.22,4,603.24-26.7,711.4,28.85,807.33,78.12,834.29,203,769.28,289.06Z"/><ellipse class="cls-2" cx="171.27" cy="74.05" rx="43.71" ry="19.79"/></g><g id="Heart_Back" data-name="Heart Back"><path class="cls-2" d="M979.59,433.23C869.69,578.67,694.86,807,612.47,916c-81.63-108.3-250.85-328.95-361.06-474.71-76-100.49-30-247.23,90.48-283.93,103.33-31.46,228.93,6.84,270.58,131.32C659.54,148.14,813.56,117.47,921.72,173,1017.65,222.29,1044.61,347.19,979.59,433.23Z"/><polygon class="cls-3" points="242.21 251.35 242.21 251.37 242.19 251.35 242.21 251.35"/><ellipse class="cls-4" cx="839.25" cy="210.94" rx="43.71" ry="19.79"/></g></svg>