<svg xmlns="http://www.w3.org/2000/svg" viewBox="0 0 1024 912"><defs><style>.cls-1{fill:#2d323d;}.cls-2{fill:#212329;}</style></defs><g id="Musical"><g id="Layer_29" data-name="Layer 29"><path class="cls-1" d="M552.83,43.83,321.21,10.93a2.88,2.88,0,0,0-.88,0l-3.17-.45L235.54,585.06a126.56,126.56,0,1,0,27.82,74.72h0L321.84,248.3c136.8,18.86,237.47,34.49,277.28,56.74a3.1,3.1,0,0,0,4.58-2.27l3.71-26.12c6.19-43.6-27.42-84.45-75.09-91.22L334.76,157.37,342,106.64c137,18.88,237.81,34.52,277.66,56.8a3.1,3.1,0,0,0,4.58-2.28l3.71-26.11C634.11,91.44,600.49,50.6,552.83,43.83Z"/></g><g id="Layer_30" data-name="Layer 30"><path class="cls-2" d="M930.84,90,678.36,54.13a3.42,3.42,0,0,0-1,0l-3.46-.49L585,680a138.39,138.39,0,1,0,29,106,139.34,139.34,0,0,0,1.3-24.54h0l85.66-603c149.33,20.59,259.24,37.63,302.67,61.91a3.37,3.37,0,0,0,5-2.48l4.05-28.46C1019.45,141.9,982.8,97.38,930.84,90Z"/></g></g></svg>