<svg xmlns="http://www.w3.org/2000/svg" viewBox="0 0 846 1024"><defs><style>.cls-1{fill:#ffae4c;}.cls-2{fill:#212329;}.cls-3{fill:#58678a;}</style></defs><g id="Biography"><g id="Cabeca-2" data-name="Cabeca"><path d="M212.36,174.64l38.94,38.94-7.53,7.54-31.41-31.4V374.23A162.85,162.85,0,0,0,375.21,537.08H484.35A162.84,162.84,0,0,0,647.19,374.23V187.58l-33.53,33.54-7.54-7.54,41.07-41.07V117.35L212.36,63.76Z"/><polygon points="212.36 1 212.36 53.02 647.19 106.62 647.19 1 212.36 1"/><polygon class="cls-1" points="212.36 63.76 647.19 117.36 647.19 106.62 212.36 53.02 212.36 63.76"/></g><g id="Oculos"><circle cx="317.34" cy="216.82" r="69.81"/><path class="cls-1" d="M317.34,292a75.14,75.14,0,1,1,75.14-75.13A75.22,75.22,0,0,1,317.34,292Zm0-139.61a64.48,64.48,0,1,0,64.48,64.48A64.55,64.55,0,0,0,317.34,152.34Z"/><circle cx="542.22" cy="216.82" r="69.81"/><path class="cls-1" d="M542.22,292a75.14,75.14,0,1,1,75.13-75.13A75.22,75.22,0,0,1,542.22,292Zm0-139.61a64.48,64.48,0,1,0,64.48,64.48A64.55,64.55,0,0,0,542.22,152.34Z"/><rect class="cls-1" x="387.15" y="212.02" width="85.26" height="10.66"/><polygon class="cls-1" points="251.3 213.58 212.36 174.64 212.36 189.72 243.76 221.12 251.3 213.58"/><polygon class="cls-1" points="613.66 221.12 647.19 187.58 647.19 172.51 606.13 213.58 613.66 221.12"/></g><rect class="cls-2" x="307.22" y="583.97" width="234.47" height="41.56"/><path class="cls-3" d="M80.54,604.22H769.43A68.54,68.54,0,0,1,838,672.76V1020a12,12,0,0,1-12,12H24a12,12,0,0,1-12-12V672.76a68.54,68.54,0,0,1,68.54-68.54Z"/></g></svg>