<svg xmlns="http://www.w3.org/2000/svg" viewBox="0 0 1024 1024"><defs><style>.cls-1{fill:#2d323d;}.cls-2{fill:#fff;}</style></defs><g id="Horror"><path class="cls-1" d="M512.21,5C285,5,100.76,189.21,100.76,416.45a409.87,409.87,0,0,0,99.81,268.64V955a63,63,0,0,0,63,63H297.1a63,63,0,0,0,63-63V913.1a36.33,36.33,0,0,1,72.65,0V955a63,63,0,0,0,63,63H529.3a63,63,0,0,0,63-63V913.1a36.32,36.32,0,0,1,72.64,0V955a63,63,0,0,0,63,63h33.51a63,63,0,0,0,63-63V684.28a409.81,409.81,0,0,0,99.13-267.83C923.66,189.21,739.44,5,512.21,5Z"/><path class="cls-2" d="M673.19,412.74l118-113.91c44.69-43.15,30.66-111.75-27.72-135.49h0c-58.37-23.75-127.13,11.17-135.81,69L604.76,384.9C599.57,419.43,646.5,438.51,673.19,412.74Z"/><path class="cls-2" d="M356.29,412.74l-118-113.91C193.6,255.68,207.63,187.08,266,163.34h0c58.38-23.75,127.14,11.17,135.82,69l22.9,152.59C429.9,419.43,383,438.51,356.29,412.74Z"/><path class="cls-2" d="M557.5,623.6l-41.75-16.7a9.52,9.52,0,0,0-7.08,0l-41.75,16.7A9.53,9.53,0,0,1,454.63,611l40.07-92.74c6.63-15.34,28.39-15.34,35,0L569.79,611A9.53,9.53,0,0,1,557.5,623.6Z"/></g></svg>