<svg xmlns="http://www.w3.org/2000/svg" viewBox="0 0 1024 744"><defs><style>.cls-1,.cls-5{fill:#fff;}.cls-1{stroke:#000;stroke-miterlimit:10;}.cls-2{fill:#2d323d;}.cls-3{fill:#f9f9f9;}.cls-4{fill:#f3fdff;}.cls-6{fill:#58678a;}</style></defs><g id="Romance"><g id="Heart_Back" data-name="Heart Back"><polygon class="cls-1" points="41 251.35 40.98 251.37 40.98 251.35 41 251.35"/></g></g><g id="Comedy"><g id="Face_Esquerda" data-name="Face Esquerda"><path class="cls-2" d="M519.76,487.72c-47.06,182-270,263.68-400.23,83.1C62.22,495.38,17,221.05,6.17,150.4A14.2,14.2,0,0,1,20.45,134C190.32,158.34,310,125.73,419.5,8.94a14.21,14.21,0,0,1,22.3,7.71C463.41,98.17,540.14,399.1,519.76,487.72Z"/><path class="cls-3" d="M226,295.29,100.86,350s-23.92-54.74,38.64-82.07S226,295.29,226,295.29Z"/><path class="cls-4" d="M451.15,278l-136.52,2.07s-.91-59.73,67.35-60.77S451.15,278,451.15,278Z"/><path class="cls-5" d="M326.13,525.05c-95.78,31.09-165.65-40.44-165.65-40.44C260.5,497,363.6,463,436.46,395,436.46,395,421.91,494,326.13,525.05Z"/></g><g id="Face_Direita" data-name="Face Direita"><path class="cls-6" d="M919.61,606.17C796.08,789.42,517,792.53,443.43,541.31,409.5,435.23,467,113.45,482.66,30.9A16.7,16.7,0,0,1,504.9,18.36C683.66,111.91,829.09,122.7,996.24,36.21a16.7,16.7,0,0,1,21.7,17.28C1009.92,152.32,977,515.93,919.61,606.17Z"/><path class="cls-3" d="M669.46,269.7l-160.1,11.53s-5.05-70.05,75-75.81S669.46,269.7,669.46,269.7Z"/><path class="cls-4" d="M925.81,338.84,773.69,287.59s22.42-66.55,98.48-40.93S925.81,338.84,925.81,338.84Z"/><path class="cls-5" d="M690.36,563.63C572,560.52,522.63,453.84,522.63,453.84c106,52.93,233.6,55.69,341,9C863.62,462.8,808.71,566.73,690.36,563.63Z"/></g></g></svg>