<svg id="Layer_1" data-name="Layer 1" xmlns="http://www.w3.org/2000/svg" viewBox="0 0 1176 899"><defs><style>.cls-1{fill:#455e82;}.cls-2{fill:#0071bc;}.cls-3{fill:#d9e021;}.cls-4{fill:none;stroke:#334560;stroke-miterlimit:10;stroke-width:10px;}.cls-5{fill:#334560;}</style></defs><path class="cls-1" d="M155.72,315.12s-11.56,8.59-8,26.46C150,352.68,172,368.24,172,368.24l13.53-12.82s-11.56-.86-25.52-17.16C152.53,329.56,155.72,315.12,155.72,315.12Z"/><path class="cls-2" d="M777,388h49.76A17.24,17.24,0,0,1,844,405.24v3.88A16.88,16.88,0,0,1,827.12,426H777a0,0,0,0,1,0,0V388a0,0,0,0,1,0,0Z"/><path class="cls-3" d="M771.72,194.81l99.63-99.22-19.42,89.55,115.44-84.9L893.71,220.43l94-32.89-63.5,93.81,100.68,20.58-83.52,65.46,123.07,104.39L943.4,508,1072.28,662l-131.4-45.44s31.31,109.76,29.46,114.19S784.55,600,784.55,600s105.89,22.36,105.86,26.36-19.17-90.56-19.17-90.56l97.52,52.31-71.67-81.34,80.71-52.81-80.11-76.38L953,318.66l-73.77-3.83,28.34-63.62-81.2,21.91L848.14,210l-44.62,18.39,12.13-50.84Z"/><path class="cls-1" d="M378.22,474.37s-14.7,4.24-25.93-10.2c-7-9-3.54-37.45-3.54-37.45l19.34-3.2s-7.44,10.29-4.68,32.47C364.88,467.82,378.22,474.37,378.22,474.37Z"/><path class="cls-4" d="M523.41,479.8c0,37.75-45.71,64.33-97.07,64.33-49.8,0-95.07-22-97.76-64.33a50,50,0,0,1-.08-6.9l.05-.15a53.47,53.47,0,0,1,8-24.91c14.53-23.82,47.07-40.41,84.88-40.41C472.8,407.43,523.41,442.05,523.41,479.8Z"/><rect class="cls-4" x="191.41" y="302.89" width="66.89" height="39.31"/><path class="cls-5" d="M720,360.08v82.19H703.69V479.8H523.41c0-37.75-50.61-72.37-102-72.37-37.81,0-70.35,16.59-84.88,40.41a53.47,53.47,0,0,0-8,24.91l-.05.15-2.22,6.9L264.82,671H132.68l43.51-202-75.33-36.56L180,326.12H627V302H693.9v24.12h9.79v34Z"/></svg>