<svg id="Layer_1" data-name="Layer 1" xmlns="http://www.w3.org/2000/svg" viewBox="0 0 1024 1024"><defs><style>.cls-1{fill:#ff261a;stroke:#b21209;stroke-miterlimit:10;stroke-width:5px;}.cls-2{fill:#fcfcfc;}.cls-3{fill:#fff;}</style></defs><path class="cls-1" d="M311.65,414.89c-69.43,44.52-158.5,29.48-198.95-33.59s-17-150.3,52.47-194.82S323.66,157,364.11,220.07,381.07,370.37,311.65,414.89Z"/><path class="cls-1" d="M916.2,376.1c-40.45,63.07-129.52,78.11-199,33.59-.94-.6-1.86-1.21-2.78-1.83a280.88,280.88,0,0,0-32.91-29.11c-40.52-47.17-49.21-113.3-16.77-163.88,40.45-63.07,129.52-78.11,198.94-33.59S956.65,313,916.2,376.1Z"/><path class="cls-1" d="M720,406.36A278.77,278.77,0,0,1,798.5,600.68c0,154.47-125.23,279.69-279.7,279.69S239.11,755.15,239.11,600.68,364.33,321,518.8,321a278.41,278.41,0,0,1,168.26,56.26A162.39,162.39,0,0,0,720,406.36Z"/><ellipse class="cls-2" cx="440.77" cy="551.87" rx="21.39" ry="53.75"/><ellipse id="O" class="cls-2" cx="586.36" cy="552.39" rx="21.39" ry="53.75"/><ellipse cx="513.3" cy="676.06" rx="49.57" ry="29.22"/><ellipse class="cls-3" cx="491.39" cy="672.93" rx="7.83" ry="8.35"/></svg>