<svg id="Layer_1" data-name="Layer 1" xmlns="http://www.w3.org/2000/svg" viewBox="0 0 1024 1024"><defs><style>.cls-1{fill:#ac9800;stroke:#ffcd14;}.cls-1,.cls-5{stroke-miterlimit:10;stroke-width:5px;}.cls-2{fill:#f9f9f9;}.cls-3{fill:#f3fdff;}.cls-4{fill:#fff;}.cls-5{fill:#ffcd14;stroke:#ac9800;}</style></defs><path class="cls-1" d="M527.26,628.93c-41.27,159.61-236.79,231.25-351,72.88C126,635.65,86.36,395.05,76.83,333.1a12.46,12.46,0,0,1,12.52-14.35c149,21.3,254-7.3,350-109.71a12.46,12.46,0,0,1,19.56,6.75C477.84,287.29,545.13,551.2,527.26,628.93Z"/><path class="cls-2" d="M269.61,460.16,159.88,508.11s-21-48,33.88-72S269.61,460.16,269.61,460.16Z"/><path class="cls-3" d="M467.08,445l-119.73,1.81s-.79-52.38,59.08-53.29S467.08,445,467.08,445Z"/><path class="cls-4" d="M357.44,661.67c-84,27.26-145.27-35.47-145.27-35.47,87.71,10.85,178.13-19,242-78.55C454.2,547.65,441.44,634.4,357.44,661.67Z"/><path class="cls-5" d="M877.92,732.81C769.59,893.52,524.8,896.25,460.32,675.93c-29.77-93,20.67-375.24,34.4-447.64a14.65,14.65,0,0,1,19.51-11C671,299.34,798.54,308.8,945.13,233a14.65,14.65,0,0,1,19,15.15C957.13,334.78,928.22,653.67,877.92,732.81Z"/><path class="cls-2" d="M658.55,437.72,518.13,447.83s-4.42-61.43,65.79-66.49S658.55,437.72,658.55,437.72Z"/><path class="cls-3" d="M883.37,498.36,750,453.41s19.67-58.37,86.37-35.89S883.37,498.36,883.37,498.36Z"/><path class="cls-4" d="M676.88,695.5c-103.79-2.73-147.11-96.28-147.11-96.28,93,46.42,204.87,48.84,299.06,7.85C828.83,607.07,780.67,698.22,676.88,695.5Z"/></svg>