<svg id="Layer_1" data-name="Layer 1" xmlns="http://www.w3.org/2000/svg" viewBox="0 0 400 400"><defs><style>.cls-1,.cls-2{fill:#fff;}.cls-2,.cls-3{stroke:#fff;stroke-miterlimit:10;}.cls-2{stroke-width:2px;}.cls-3{fill:none;stroke-width:8px;}</style></defs><polygon points="35.55 334.46 117.23 4.87 364.79 66.22 283.1 395.82 35.55 334.46"/><path class="cls-1" d="M118,6.08,363.58,67,282.37,394.61,36.76,333.73,118,6.08M116.5,3.66,34.34,335.19,283.83,397,366,65.49,116.5,3.66Z"/><rect x="65.04" y="23.64" width="260.4" height="346.68"/><path class="cls-1" d="M324.44,24.64V369.32H66V24.64h258.4m2-2H64V371.32h262.4V22.64Z"/><rect x="89.86" y="60.04" width="99.65" height="61.13" rx="7.2"/><path class="cls-1" d="M182.31,61a6.21,6.21,0,0,1,6.2,6.2V114a6.21,6.21,0,0,1-6.2,6.2H97.07a6.21,6.21,0,0,1-6.21-6.2V67.24A6.21,6.21,0,0,1,97.07,61h85.24m0-2H97.07a8.21,8.21,0,0,0-8.21,8.2V114a8.21,8.21,0,0,0,8.21,8.2h85.24a8.2,8.2,0,0,0,8.2-8.2V67.24a8.2,8.2,0,0,0-8.2-8.2Z"/><polygon class="cls-2" points="123.73 72.88 123.73 108.33 161.99 90.61 123.73 72.88"/><line class="cls-3" x1="214.15" y1="60.08" x2="308.71" y2="60.08"/><line class="cls-3" x1="214.15" y1="91.2" x2="308.71" y2="91.2"/><line class="cls-3" x1="214.15" y1="121.13" x2="308.71" y2="121.13"/><line class="cls-3" x1="87.68" y1="158.49" x2="308.71" y2="158.49"/><line class="cls-3" x1="87.68" y1="207.03" x2="214.15" y2="207.03"/><line class="cls-3" x1="87.68" y1="261.48" x2="308.71" y2="261.48"/><line class="cls-3" x1="87.68" y1="322.86" x2="166.87" y2="322.86"/></svg>